<?xml version="1.0" encoding="UTF-8"?>
<svg version="1.1" xmlns="http://www.w3.org/2000/svg" width="1024" height="1024">
<path d="M0 0 C337.92 0 675.84 0 1024 0 C1024 337.92 1024 675.84 1024 1024 C686.08 1024 348.16 1024 0 1024 C0 686.08 0 348.16 0 0 Z " fill="#000000" transform="translate(0,0)"/>
<path d="M0 0 C1.10859375 0.50144531 2.2171875 1.00289063 3.359375 1.51953125 C12.24000375 5.65930033 19.51111684 10.74799045 27 17 C27.88558594 17.72058594 28.77117187 18.44117188 29.68359375 19.18359375 C48.28513961 34.99926067 61.85405897 60.51030668 64.71875 84.75 C67.2430536 117.24231817 61.766104 146.15155635 40.68359375 171.8203125 C38.51843012 174.28295079 36.28352048 176.64728193 34 179 C33.32839844 179.74507812 32.65679688 180.49015625 31.96484375 181.2578125 C16.13738067 198.23905326 -10.41127541 211.22027755 -33.64941406 212.14526367 C-37.10730633 212.16557082 -40.56499744 212.18568399 -44.02294922 212.18530273 C-46.23034203 212.1874806 -48.43722709 212.20565305 -50.64453125 212.22460938 C-62.17218259 212.27299202 -72.48784037 210.95750212 -83.3125 206.875 C-84.1286377 206.56860596 -84.94477539 206.26221191 -85.78564453 205.9465332 C-106.95496902 197.73890857 -127.05637433 182.52428306 -139 163 C-139.3515918 162.43861328 -139.70318359 161.87722656 -140.06542969 161.29882812 C-155.81729814 135.91857973 -161.84281624 104.40894397 -155.0625 75.0625 C-150.06527476 55.58056393 -139.84501187 38.45136275 -126 24 C-125.15695312 23.07960938 -125.15695312 23.07960938 -124.296875 22.140625 C-93.88911107 -10.03846498 -39.63895633 -20.22514 0 0 Z " fill="#FAFAFA" transform="translate(558,409)"/>
<path d="M0 0 C0.33 0.66 0.66 1.32 1 2 C-0.26846481 4.66718763 -1.60206739 7.1887895 -3.0625 9.75 C-3.51077148 10.54349854 -3.95904297 11.33699707 -4.42089844 12.15454102 C-14.1814295 29.21564534 -25.06528171 45.39331494 -37 61 C-37.89017822 62.16837402 -37.89017822 62.16837402 -38.79833984 63.36035156 C-45.37810129 71.97573227 -52.0724393 80.46997959 -59.15209961 88.6809082 C-60.97518698 90.79705988 -62.77776459 92.92760989 -64.56103516 95.07739258 C-72.10348759 104.11366045 -80.20898163 112.48716663 -88.56494141 120.77075195 C-90.76661905 122.95397978 -92.95999532 125.14529844 -95.15234375 127.33789062 C-96.5750475 128.75568346 -97.99820832 130.17301784 -99.421875 131.58984375 C-100.06477478 132.23163071 -100.70767456 132.87341766 -101.37005615 133.53465271 C-105.2141799 137.33930593 -109.16890148 140.96806053 -113.26426697 144.50114441 C-115.48459865 146.41846493 -117.64740613 148.39570228 -119.8125 150.375 C-125.06175883 155.10571502 -130.49558996 159.57083694 -136 164 C-137.12135302 164.91374442 -138.24243511 165.82782139 -139.36328125 166.7421875 C-143.21062347 169.86864708 -147.09408323 172.9470887 -151 176 C-151.62648438 176.48968262 -152.25296875 176.97936523 -152.8984375 177.48388672 C-164.67966133 186.59930812 -177.06223572 194.84787335 -189.4375 203.125 C-190.25259033 203.67190491 -191.06768066 204.21880981 -191.9074707 204.7822876 C-203.27764124 212.40018764 -214.83032581 219.6285431 -226.61502075 226.58734131 C-230.75466512 229.03931426 -234.87678893 231.52052366 -239 234 C-222.80499618 226.14422203 -207.11660102 217.83931575 -191.66699219 208.58984375 C-189.22789888 207.13585477 -186.77838997 205.70283991 -184.3203125 204.28125 C-166.64410336 194.05080036 -149.80262596 182.59542238 -133 171 C-131.86280518 170.21689453 -131.86280518 170.21689453 -130.70263672 169.41796875 C-112.8580993 157.09625674 -95.67333972 143.86134983 -79 130 C-78.41250977 129.51160645 -77.82501953 129.02321289 -77.21972656 128.52001953 C-70.83225815 123.19355078 -64.54358341 117.76908233 -58.390625 112.171875 C-56.78542828 110.71355902 -55.1706457 109.2657309 -53.546875 107.828125 C-47.108704 102.11880355 -41.04030129 96.12380776 -35 90 C-32.1278969 87.11351241 -29.23582284 84.24896254 -26.328125 81.3984375 C-19.52683765 74.70427665 -12.95307387 68.06287709 -7.0546875 60.55078125 C-4.89647564 57.87148022 -2.60411498 55.38329823 -0.25 52.875 C6.37866748 45.68440466 12.15062054 37.82651749 18 30 C18.99983668 28.66654419 19.99979375 27.33317862 21 26 C25.49949278 27.49983093 26.52636262 30.80363955 28.75 34.8125 C29.17410156 35.53759766 29.59820313 36.26269531 30.03515625 37.00976562 C30.62876953 38.06647461 30.62876953 38.06647461 31.234375 39.14453125 C31.59756836 39.78753174 31.96076172 40.43053223 32.33496094 41.09301758 C33.17744099 43.50880749 32.89136277 44.62509596 32 47 C30.47338948 49.48219878 28.91537237 51.864272 27.25 54.25 C26.7648291 54.95020264 26.2796582 55.65040527 25.77978516 56.37182617 C20.68662302 63.61530875 15.1217274 70.44343328 9.45458984 77.24121094 C7.49503522 79.61056836 5.59797059 82.02848756 3.6875 84.4375 C-5.33579642 95.43670074 -15.47301527 105.5481711 -25.5 115.625 C-26.13365479 116.26332764 -26.76730957 116.90165527 -27.42016602 117.55932617 C-31.20771984 121.33396167 -35.11842149 124.91077748 -39.16503906 128.40576172 C-41.53649598 130.46611479 -43.82757107 132.60770293 -46.125 134.75 C-51.93166601 140.04336956 -58.03952703 144.87837893 -64.26660156 149.66503906 C-65.89973056 150.92277841 -67.52437675 152.19151036 -69.1484375 153.4609375 C-88.95508571 168.87719517 -109.69387782 182.75867063 -131 196 C-131.64404785 196.4007373 -132.2880957 196.80147461 -132.95166016 197.21435547 C-143.53332172 203.76571993 -154.44104907 209.7062522 -165.40039062 215.59814453 C-167.6740902 216.82425112 -169.93996265 218.06319464 -172.203125 219.30859375 C-207.64655832 238.65617616 -245.70742525 253.51126803 -283.69021606 267.00930786 C-285.28347244 267.57579325 -286.87601294 268.14429713 -288.46774292 268.71505737 C-297.72510556 272.02676153 -306.94789817 274.90471054 -316.51660156 277.17285156 C-320.64879709 278.15405975 -324.72889852 279.27407215 -328.8125 280.4375 C-330.34744303 280.86664876 -331.88260644 281.29500996 -333.41796875 281.72265625 C-336.77507358 282.65842549 -336.77507358 282.65842549 -340.13134766 283.59716797 C-380.60095188 294.86112966 -422.71537376 302.45629063 -464.5 306.5625 C-465.31017578 306.64285492 -466.12035156 306.72320984 -466.95507812 306.80599976 C-476.31364518 307.71261094 -485.58928386 308.21341129 -495 308 C-491.38465396 305.86049335 -487.61536647 305.22561939 -483.53515625 304.51953125 C-482.01207332 304.24385994 -480.48904499 303.96788681 -478.96606445 303.69165039 C-478.16673492 303.54873566 -477.3674054 303.40582092 -476.54385376 303.25857544 C-452.4190127 298.92162871 -428.79059863 293.47212945 -405.42578125 285.9921875 C-401.24468188 284.66133625 -397.04777071 283.46372247 -392.80978394 282.33314514 C-381.53874933 279.31048016 -370.63306868 275.4676541 -359.6875 271.4375 C-358.25041687 270.91151718 -358.25041687 270.91151718 -356.78430176 270.37490845 C-332.97124211 261.65180922 -309.65564982 252.03922627 -286.69140625 241.25976562 C-284.15400218 240.07208375 -281.60965498 238.90096375 -279.0625 237.734375 C-267.59681444 232.44588818 -256.52375635 226.53463821 -245.49658203 220.38867188 C-243.32492059 219.18073032 -241.14702901 217.9856485 -238.96484375 216.796875 C-208.46892579 200.07125415 -179.52366247 180.4440508 -151.85498047 159.40966797 C-150.09521122 158.07235451 -148.33109636 156.74096488 -146.56640625 155.41015625 C-139.89647522 150.35570747 -133.46320273 145.08375338 -127.109375 139.640625 C-124.32785189 137.26281619 -121.4842365 134.97150549 -118.625 132.6875 C-113.35173913 128.402493 -108.40618061 123.80695987 -103.47705078 119.13549805 C-100.5247293 116.339636 -97.5523556 113.60511274 -94.453125 110.97265625 C-88.48524687 105.78658676 -82.96939233 100.11802373 -77.39086914 94.52124023 C-75.4420313 92.56704376 -73.48790728 90.61824853 -71.53320312 88.66992188 C-65.47598984 82.61628502 -59.51594147 76.55795584 -54 70 C-52.95557424 68.80774582 -51.90868269 67.61764733 -50.859375 66.4296875 C-44.04180525 58.65131757 -37.51726544 50.70908326 -31.19189453 42.52685547 C-29.53685737 40.40669931 -27.82890824 38.33097353 -26.125 36.25 C-16.81378018 24.64443443 -8.39463698 12.27742773 0 0 Z " fill="#F9F9F9" transform="translate(651,544)"/>
<path d="M0 0 C1.96020508 1.19238281 1.96020508 1.19238281 4.01953125 2.703125 C4.78740967 3.26507568 5.55528809 3.82702637 6.34643555 4.40600586 C7.16023682 5.01452393 7.97403809 5.62304199 8.8125 6.25 C9.65401611 6.87463135 10.49553223 7.4992627 11.36254883 8.14282227 C18.7129753 13.66172173 25.67784894 19.54874123 32.52099609 25.6796875 C34.32590363 27.29093543 36.16249277 28.86361801 38 30.4375 C59.20193467 49.12627431 78.31938404 69.77773329 95.56347656 92.16015625 C97.02621413 94.03357404 98.52049261 95.87747573 100.0234375 97.71875 C123.65389804 126.95437582 143.18246155 160.00629915 161 193 C161.57862793 194.06927734 162.15725586 195.13855469 162.75341797 196.24023438 C195.1214363 256.4142736 220.97477175 321.85753559 237.30029297 388.234375 C238.09790809 391.38698634 238.98482615 394.50544097 239.8984375 397.62597656 C250.45692983 433.8093813 256.7748 472.33027842 260.29736328 509.81152344 C260.79657117 515.12156911 261.41822028 520.40138974 262.125 525.6875 C262.83923991 531.19495934 263.19812109 536.45260939 263 542 C261.11368105 538.72819374 260.54369816 535.83407656 260.05078125 532.10546875 C259.04725125 525.1042103 257.6819639 518.22391409 256.1875 511.3125 C255.92324219 510.08571533 255.65898438 508.85893066 255.38671875 507.5949707 C253.6034934 499.44775272 251.58915394 491.41921614 249.2578125 483.4140625 C248.35327193 480.29811013 247.52599909 477.171928 246.7421875 474.0234375 C224.13365138 383.33266006 183.30246705 295.73563627 127 212 C126.55237305 211.33629395 126.10474609 210.67258789 125.64355469 209.98876953 C106.82018221 182.0832228 86.05800044 155.2921008 63.27734375 130.49609375 C61.2520444 128.27625449 59.27402229 126.02606484 57.3125 123.75 C54.61802745 120.64536183 51.77555634 117.75058592 48.84130859 114.8737793 C47.06826241 113.06946619 45.42006104 111.20810323 43.77734375 109.28515625 C40.04224835 104.99093258 36.09731448 100.94896936 32.0625 96.9375 C31.39798828 96.26912109 30.73347656 95.60074219 30.04882812 94.91210938 C26.07983553 90.95081608 21.99282072 87.19265183 17.74780273 83.52954102 C15.73795591 81.77067939 13.85481046 79.92105369 12 78 C8.16427312 74.11984385 4.1457699 70.54374391 0 67 C-1.01862581 66.1176452 -2.03682137 65.23479355 -3.0546875 64.3515625 C-16.02254497 53.1289085 -29.33707326 42.36417217 -43 32 C-42.01 31.505 -42.01 31.505 -41 31 C-23.20065879 42.75264998 -5.60864066 54.60112925 11 68 C11.6379248 68.51175781 12.27584961 69.02351563 12.93310547 69.55078125 C38.00995036 89.6759133 38.00995036 89.6759133 47.09008789 99.09082031 C48.85318 100.8532363 50.66539527 102.46741619 52.56640625 104.078125 C57.80189893 108.62661006 62.67096406 113.5250153 67.5625 118.4375 C68.46935547 119.34048828 69.37621094 120.24347656 70.31054688 121.17382812 C75.41752539 126.28821342 80.29930281 131.51232599 85 137 C86.45445517 138.60768373 87.91220895 140.21239715 89.375 141.8125 C93.62514793 146.5269498 97.64752601 151.39467502 101.63818359 156.32910156 C103.20163412 158.24739762 104.78144067 160.15152865 106.36328125 162.0546875 C113.13902346 170.21240913 119.7496984 178.42846203 126 187 C126.89927908 188.20477096 127.79904958 189.4091752 128.69921875 190.61328125 C149.15646829 218.21779915 166.91769761 247.67428333 183.65649414 277.63842773 C185.06616183 280.11629718 186.52441389 282.56090951 188 285 C181.72247623 271.37903735 174.97398983 258.1162006 167.67431641 245.01611328 C165.87654275 241.77760412 164.09942984 238.52827139 162.32421875 235.27734375 C155.41302254 222.66299152 148.27586968 210.30070528 140.44287109 198.23730469 C138.4678121 195.17479359 136.53969046 192.08372626 134.6081543 188.99365234 C113.59671202 155.43760082 90.36074822 123.40766329 65 93 C64.3495874 92.22003662 64.3495874 92.22003662 63.68603516 91.42431641 C52.13616211 77.62716458 39.75885847 64.68054035 27.0625 51.9375 C25.7487439 50.61673462 25.7487439 50.61673462 24.40844727 49.26928711 C19.99050056 44.86229156 15.5103104 40.60099437 10.77612305 36.53540039 C8.24207065 34.34479482 5.81602628 32.04329846 3.375 29.75 C-1.59220911 25.13118261 -6.79211771 20.89480063 -12.19189453 16.79199219 C-15.74263928 14.07653458 -18.90486562 11.22819623 -22 8 C-19.09329038 6.45955109 -16.17328662 4.94622078 -13.25 3.4375 C-12.425 2.99986328 -11.6 2.56222656 -10.75 2.11132812 C-9.55117188 1.49741211 -9.55117188 1.49741211 -8.328125 0.87109375 C-7.5949707 0.48880615 -6.86181641 0.10651855 -6.10644531 -0.28735352 C-3.5444515 -1.15411985 -2.49638959 -0.99049403 0 0 Z " fill="#F8F8F8" transform="translate(589,329)"/>
<path d="M0 0 C2.06144699 3.09217049 2.38968841 4.47979545 2.859375 8.06640625 C3.0022998 9.09572266 3.14522461 10.12503906 3.29248047 11.18554688 C3.44346191 12.29994141 3.59444336 13.41433594 3.75 14.5625 C5.56949319 27.13989964 8.22260725 39.38549307 11.21777344 51.72802734 C12.00912449 55.03816678 12.76417429 58.3546174 13.5078125 61.67578125 C16.33034746 74.26138989 19.46934188 86.67695932 23.14697266 99.03930664 C23.81022916 101.34134203 24.44739449 103.64511078 25.06787109 105.95874023 C28.08662106 117.16910835 31.62743946 128.11973165 35.5 139.0625 C35.80235565 139.92139832 36.1047113 140.78029663 36.41622925 141.66522217 C62.63652255 216.0466175 96.99627215 287.47225977 149 357 C149.873923 358.15868443 150.74763377 359.31752898 151.62109375 360.4765625 C160.41366682 372.08011822 169.66414214 383.33946187 179.11474609 394.41137695 C181.99419915 397.78864983 184.79075252 401.2216021 187.5625 404.6875 C191.25618275 409.23357108 195.22419486 413.36029505 199.4453125 417.41796875 C201.46049807 419.45472358 203.32106754 421.50606574 205.18334961 423.67675781 C208.83824992 427.8694005 212.68324254 431.82812136 216.62109375 435.75390625 C217.32468521 436.45845444 218.02827667 437.16300262 218.75318909 437.88890076 C220.23014648 439.36653367 221.70834742 440.84292457 223.18774414 442.31811523 C225.43165085 444.55666481 227.67016704 446.80050473 229.90820312 449.04492188 C231.35384618 450.48990404 232.79979945 451.93457592 234.24609375 453.37890625 C234.9046788 454.03951553 235.56326385 454.70012482 236.24180603 455.38075256 C240.11917807 459.23895229 244.10439168 462.91728008 248.24908447 466.48719788 C250.65253204 468.56379182 252.97953864 470.71982263 255.3125 472.875 C259.81455078 476.98017578 264.43613454 480.88406156 269.17578125 484.7109375 C272.18585636 487.15063876 275.15712082 489.63441271 278.125 492.125 C282.99906445 496.19732539 287.94985845 500.14862943 293 504 C292.34 504.33 291.68 504.66 291 505 C270.13985391 491.31515239 250.06524003 476.84983103 231.1015625 460.62890625 C228.175514 458.1327295 225.18643248 455.72073366 222.1875 453.3125 C218.25882578 450.11831705 214.62910728 446.78945732 211.14453125 443.1171875 C209.33034955 441.32613744 207.48356398 439.68866083 205.546875 438.03515625 C200.15355288 433.3512687 195.13824321 428.28797268 190.09985352 423.23022461 C188.4407268 421.56573723 186.77631949 419.90666553 185.11132812 418.24804688 C179.53008544 412.67029507 174.11413018 407.01351479 169 401 C167.54554483 399.39231627 166.08779105 397.78760285 164.625 396.1875 C160.80207377 391.94694317 157.1531499 387.59757431 153.56640625 383.15625 C151.66220474 380.80091325 149.72627639 378.47469982 147.77734375 376.15625 C139.93726761 366.80080025 132.60305264 357.19846282 125.5703125 347.22314453 C124.02548064 345.0360738 122.46769886 342.8588228 120.90625 340.68359375 C98.35395695 309.17187329 79.67859111 275.41463056 62 241 C64.67468722 247.55426765 67.38765082 254.01606976 70.625 260.3125 C73.47481505 265.90061559 76.20820786 271.53202707 78.87670898 277.20898438 C84.37019862 288.87373819 90.31288479 300.21615695 96.59619141 311.47314453 C97.88631853 313.79537335 99.15645677 316.12698142 100.41796875 318.46484375 C129.0357523 371.26117029 164.43545092 422.08248517 205.33203125 466.0859375 C206.70991848 467.59092121 208.08489583 469.09967569 209.40795898 470.65307617 C214.82112807 477.00854076 220.71480297 482.8659905 226.62426758 488.75463867 C228.43360933 490.55862085 230.23754319 492.36788665 232.04101562 494.17773438 C237.85614446 499.9966684 243.68588406 505.71686991 250 511 C251.13807421 511.97129163 252.27609645 512.94264415 253.4140625 513.9140625 C254.48377978 514.81841286 255.55408333 515.72207026 256.625 516.625 C257.15867187 517.07617188 257.69234375 517.52734375 258.2421875 517.9921875 C261.81532289 521.01027273 265.40423037 524.00892437 269 527 C266.22764376 530.18719787 262.72296217 532.19187157 259.125 534.3125 C258.51269531 534.69728516 257.90039062 535.08207031 257.26953125 535.47851562 C254.33074752 537.20591634 252.67103895 538.14399978 249.26953125 537.4140625 C247.1371638 536.08546178 245.38600576 534.78493385 243.5625 533.0625 C239.94899134 529.7750222 236.18179347 526.78648092 232.3125 523.8125 C226.28557394 519.14761865 220.66700152 514.15696796 215.1328125 508.921875 C212.88971236 506.80208948 210.58738459 504.77235695 208.24609375 502.76171875 C203.25476081 498.41807068 198.60381567 493.74991431 193.9375 489.0625 C192.64875977 487.77956055 192.64875977 487.77956055 191.33398438 486.47070312 C186.34675306 481.4758519 181.57707511 476.37166163 177 471 C176.0268778 469.88208412 175.05295027 468.76486862 174.078125 467.6484375 C167.67351961 460.25515677 161.47285465 452.7371407 155.51757812 444.97705078 C154.46491497 443.6056759 153.40867074 442.2370453 152.34960938 440.87060547 C138.07456916 422.41799316 124.68818128 403.04797493 113.04833984 382.81396484 C111.89692607 380.82164898 110.72467 378.84243319 109.55078125 376.86328125 C73.24429764 315.34639465 43.16045298 245.86963278 27.39233398 175.98583984 C26.44804883 171.81177603 25.36296882 167.72450331 24.125 163.625 C18.45160134 143.95429731 14.94572105 123.74785458 11.3125 103.625 C11.12031891 102.56535034 10.92813782 101.50570068 10.73013306 100.41394043 C7.26173036 81.22709501 4.23007406 62.04003643 2.375 42.625 C2.19324219 40.80935547 2.19324219 40.80935547 2.0078125 38.95703125 C0.73555935 25.97175179 -0.19815471 13.05619352 0 0 Z " fill="#F8F8F8" transform="translate(181,146)"/>
<path d="M0 0 C0 0.33 0 0.66 0 1 C-0.57927246 1.07927734 -1.15854492 1.15855469 -1.75537109 1.24023438 C-15.55223285 3.17719926 -29.07928918 5.77817142 -42.625 9 C-43.32985535 9.16717529 -44.03471069 9.33435059 -44.76092529 9.5065918 C-59.15793262 12.93594796 -73.43460302 16.70280476 -87.5625 21.125 C-88.80354492 21.51333008 -90.04458984 21.90166016 -91.32324219 22.30175781 C-95.21854435 23.52495688 -99.10958471 24.76136251 -103 26 C-104.84150635 26.58442871 -104.84150635 26.58442871 -106.72021484 27.18066406 C-133.75865465 35.81539288 -160.33032677 45.85559618 -186 58 C-186.90331055 58.42490723 -187.80662109 58.84981445 -188.73730469 59.28759766 C-195.51339329 62.48033252 -202.26449737 65.72256699 -209 69 C-209.86125488 69.41894531 -210.72250977 69.83789062 -211.60986328 70.26953125 C-267.84406716 97.73807046 -322.60461846 132.63756692 -368.84375 175.0234375 C-370.87014821 176.8809692 -372.92518629 178.69688809 -375 180.5 C-381.89425475 186.5185732 -388.6645344 192.59345128 -395.0859375 199.1171875 C-396.9141646 200.91556599 -398.79833695 202.58747222 -400.75 204.25 C-408.42562822 210.86587679 -415.60279929 218.17144661 -422.16796875 225.88671875 C-424.04875798 228.05624321 -425.98884242 230.16431327 -427.94238281 232.26831055 C-432.65213103 237.34485409 -437.16666367 242.51856834 -441.5078125 247.91796875 C-443.37869084 250.23164118 -445.26731879 252.52186579 -447.1796875 254.80078125 C-455.90188978 265.22153713 -464.06314463 275.97154594 -472 287 C-472.52239258 287.72574219 -473.04478516 288.45148438 -473.58300781 289.19921875 C-476.40256645 293.12302897 -479.20803649 297.05651237 -482 301 C-482.33 300.34 -482.66 299.68 -483 299 C-481.8046875 296.48046875 -481.8046875 296.48046875 -479.875 293.1875 C-479.52099121 292.58292969 -479.16698242 291.97835938 -478.80224609 291.35546875 C-477.54761742 289.22908673 -476.27578467 287.11375561 -475 285 C-474.50564453 284.17838379 -474.01128906 283.35676758 -473.50195312 282.51025391 C-467.16718945 272.02344025 -460.68762367 261.7205994 -453.38671875 251.87841797 C-451.79509889 249.72244557 -450.22569809 247.55106846 -448.65625 245.37890625 C-442.20056942 236.47943491 -435.58921179 227.83480036 -428.35205078 219.55810547 C-426.95614953 217.94946664 -425.58342086 216.32333581 -424.21484375 214.69140625 C-412.80550681 201.12522512 -400.50649794 188.42761091 -388 175.875 C-386.69204468 174.5600354 -386.69204468 174.5600354 -385.35766602 173.21850586 C-380.94720443 168.81904398 -376.47298411 164.56542199 -371.74707031 160.50634766 C-369.3990287 158.48183442 -367.14227544 156.36417967 -364.875 154.25 C-359.66935363 149.50325358 -354.22705414 145.15153782 -348.65625 140.84375 C-345.59840308 138.47849234 -342.59093761 136.0571854 -339.59179688 133.61816406 C-309.78886845 109.45661711 -276.33226148 87.22451894 -242 70 C-248.28995715 71.98776036 -253.98777928 74.80206335 -259.875 77.75 C-261.59299805 78.61020752 -261.59299805 78.61020752 -263.34570312 79.48779297 C-275.1928698 85.49441719 -286.62869891 92.14150648 -298 99 C-298.85658203 99.51369141 -299.71316406 100.02738281 -300.59570312 100.55664062 C-309.89459485 106.13890214 -319.02344757 111.90967618 -328 118 C-329.83305586 119.20875423 -331.66640002 120.41707133 -333.5 121.625 C-354.47314746 135.6253279 -374.89465402 150.33723495 -394.22998047 166.52978516 C-396.49775653 168.41344687 -398.80710481 170.24102388 -401.125 172.0625 C-407.2915534 176.96195339 -413.19582977 182.1726002 -419.12207031 187.35766602 C-420.41132193 188.48517455 -421.70243966 189.61055175 -422.99511719 190.73413086 C-434.97209049 201.16136339 -446.32437187 212.22532647 -457.5625 223.4375 C-458.07901123 223.95142303 -458.59552246 224.46534607 -459.12768555 224.99484253 C-464.97170168 230.815729 -470.663004 236.70422098 -476 243 C-476.97283851 244.11816277 -477.94676444 245.23538055 -478.921875 246.3515625 C-484.99484842 253.36461487 -490.84744505 260.50885387 -496.52734375 267.84375 C-497.35019896 268.89690013 -498.17442855 269.9489778 -499 271 C-499.44746582 271.57363281 -499.89493164 272.14726562 -500.35595703 272.73828125 C-501.52413782 274.19733264 -502.75733447 275.60384109 -504 277 C-504.66 277 -505.32 277 -506 277 C-507.54429765 274.28348686 -509.05601606 271.55013724 -510.5625 268.8125 C-511.21895508 267.65911133 -511.21895508 267.65911133 -511.88867188 266.48242188 C-512.29794922 265.73154297 -512.70722656 264.98066406 -513.12890625 264.20703125 C-513.51119385 263.5210083 -513.89348145 262.83498535 -514.28735352 262.12817383 C-515.22332934 259.33307235 -514.88387216 257.7946962 -514 255 C-512.77587891 252.89453125 -512.77587891 252.89453125 -511.2265625 250.8125 C-510.65446045 250.03777344 -510.0823584 249.26304687 -509.49291992 248.46484375 C-508.87650635 247.65144531 -508.26009277 246.83804688 -507.625 246 C-506.67814331 244.73349609 -506.67814331 244.73349609 -505.7121582 243.44140625 C-501.17940621 237.42900386 -496.46360197 231.61325309 -491.52734375 225.9296875 C-489.03670312 223.04254613 -486.63817759 220.09713333 -484.25 217.125 C-481.23062519 213.41256585 -478.10367521 209.981974 -474.6640625 206.66015625 C-472.92712187 204.92729295 -471.34154672 203.11686167 -469.75 201.25 C-463.43219079 193.93837811 -456.4977985 187.13664239 -449.1484375 180.8671875 C-446.96788811 178.97209185 -444.8460471 177.02046164 -442.72900391 175.05493164 C-436.68107293 169.4447429 -430.4427958 164.15594109 -424 159 C-422.86916043 158.07759625 -421.73898485 157.15437804 -420.609375 156.23046875 C-403.54298753 142.33315756 -385.4128451 130.03346753 -367 118 C-366.17387207 117.45988281 -365.34774414 116.91976562 -364.49658203 116.36328125 C-292.09062418 69.27292789 -210.05375511 36.31461107 -66 6 C-64.50291504 5.75491699 -64.50291504 5.75491699 -62.97558594 5.50488281 C-51.34720082 3.61287865 -39.66340307 2.40910078 -27.9375 1.3125 C-26.8814859 1.21202866 -26.8814859 1.21202866 -25.80413818 1.10952759 C-17.18884963 0.29917367 -8.65816672 -0.19349574 0 0 Z " fill="#F8F8F8" transform="translate(853,161)"/>
<path d="M0 0 C7.4923617 6.2955952 13.17202062 12.96388542 17 22 C17.33773437 22.79148437 17.67546875 23.58296875 18.0234375 24.3984375 C22.35099583 36.98408879 21.68080762 52.80240186 16.546875 64.98828125 C9.44621088 78.81305913 -0.91564496 88.51795798 -15.3125 94.375 C-21.07243323 96.16050459 -26.64197332 96.38811862 -32.625 96.4375 C-33.93078003 96.45272705 -33.93078003 96.45272705 -35.26293945 96.46826172 C-50.19980625 96.26822068 -62.20211295 89.62674601 -72.49291992 79.16699219 C-77.30250028 74.00861713 -80.52561508 68.62525528 -83 62 C-83.33515625 61.11957031 -83.6703125 60.23914063 -84.015625 59.33203125 C-88.42274862 45.77010994 -86.7355521 30.990095 -80.375 18.375 C-72.41655012 4.77114725 -60.08839201 -5.16327612 -44.8125 -9.25 C-29.43285819 -12.18199411 -12.8121227 -9.17599278 0 0 Z " fill="#010101" transform="translate(545,467)"/>
<path d="M0 0 C20.96445132 16.62708694 34.33085179 38.03721762 37.96435547 64.70703125 C40.65600429 88.0806655 34.70916292 111.56256186 20.8125 130.625 C19.31348674 132.49685131 17.79330883 134.35199845 16.25 136.1875 C15.55261719 137.04730469 14.85523438 137.90710938 14.13671875 138.79296875 C-0.51246878 156.06669079 -21.88850527 167.02167859 -44.30859375 169.91015625 C-71.84831217 172.12958872 -97.68211675 165.42434386 -119.0625 147.5 C-130.70503705 137.26922485 -138.58620833 125.32414665 -144.75 111.1875 C-145.18183594 110.1975 -145.61367188 109.2075 -146.05859375 108.1875 C-154.63747639 86.56745876 -153.13827986 59.6719044 -144.0625 38.5625 C-132.13431114 14.43773803 -113.5790692 -4.41035984 -87.92578125 -13.75 C-58.04329135 -23.7475858 -25.31066185 -19.3797064 0 0 Z M-110.75 18.1875 C-111.38035156 18.72632813 -112.01070313 19.26515625 -112.66015625 19.8203125 C-126.99770224 32.81881661 -134.55764773 53.33461805 -136.06640625 72.12890625 C-136.71232362 93.44417934 -128.61825435 114.42970909 -114.00952148 129.95507812 C-106.46422623 137.70700589 -98.41707147 143.38976823 -88.75 148.1875 C-88.03457031 148.56777344 -87.31914062 148.94804688 -86.58203125 149.33984375 C-70.09772752 157.53560452 -50.04384202 156.97483364 -32.82666016 151.58544922 C-11.68191403 144.45170242 4.51480469 130.07088361 15 110.5 C23.66862035 92.19076297 25.70927868 70.46206216 18.98193359 51.11279297 C14.80757798 40.13248331 9.24650198 30.85156076 1.25 22.1875 C0.63769531 21.48367188 0.02539062 20.77984375 -0.60546875 20.0546875 C-9.18440268 10.7257828 -20.87132487 4.28636625 -32.75 0.1875 C-33.60980469 -0.13089844 -34.46960938 -0.44929688 -35.35546875 -0.77734375 C-61.79482318 -9.05633352 -90.93155018 -0.06017893 -110.75 18.1875 Z " fill="#050505" transform="translate(568.75,434.8125)"/>
<path d="M0 0 C0 3.76925546 -1.34820085 4.69879623 -3.91137695 7.2769165 C-4.75962036 8.10663971 -4.75962036 8.10663971 -5.625 8.953125 C-6.49547974 9.82079498 -6.49547974 9.82079498 -7.38354492 10.70599365 C-8.6176083 11.93332412 -9.85526917 13.15704618 -11.09619141 14.37744141 C-12.97149788 16.22196573 -14.83627752 18.07659018 -16.69921875 19.93359375 C-22.11397038 25.31266789 -27.53775074 30.63558489 -33.34912109 35.58984375 C-35.90852559 37.77604907 -38.34952754 40.08081866 -40.8125 42.375 C-46.35654342 47.48995145 -52.10832454 52.28822241 -58 57 C-59.10727552 57.89911841 -60.21402135 58.79888943 -61.3203125 59.69921875 C-83.82039438 77.94378308 -107.3121588 94.84438024 -132 110 C-132.76151367 110.47083008 -133.52302734 110.94166016 -134.30761719 111.42675781 C-191.16241315 146.50123871 -254.17344504 176.4750609 -318.96142578 193.45117188 C-322.55700432 194.41917913 -326.11997971 195.49658964 -329.6875 196.5625 C-335.1515546 198.18173673 -340.6245148 199.75877575 -346.125 201.25 C-347.28257812 201.56453125 -348.44015625 201.8790625 -349.6328125 202.203125 C-353.07750752 203.01834285 -356.49006137 203.55344292 -360 204 C-357.29730553 201.29730553 -354.09121119 200.21970702 -350.625 198.75 C-310.24506784 181.11879928 -271.17077566 158.38542852 -237.828125 129.4296875 C-235.33317335 127.28623456 -232.79085633 125.25854975 -230.1875 123.25 C-214.63192872 110.89112379 -199.77119846 96.21438425 -187 81 C-186.06924809 79.93094915 -185.1367846 78.86338735 -184.203125 77.796875 C-174.08757274 66.6135954 -174.08757274 66.6135954 -166 54 C-165.34 54 -164.68 54 -164 54 C-162.35327185 61.9248792 -161.78440089 69.61260839 -161.75 77.6875 C-161.74097656 78.55334717 -161.73195313 79.41919434 -161.72265625 80.3112793 C-161.75039965 86.40847039 -162.60670963 92.06899459 -164 98 C-148.48137091 91.63896116 -133.29855535 84.90091331 -118.38818359 77.21972656 C-116.2550766 76.13027629 -114.11221461 75.06834214 -111.95703125 74.0234375 C-79.07821568 58.06194407 -47.91564851 38.32429309 -19 16 C-18.41460449 15.54995605 -17.82920898 15.09991211 -17.22607422 14.63623047 C-15.33420572 13.17925175 -13.44746675 11.71589431 -11.5625 10.25 C-10.98258301 9.80180908 -10.40266602 9.35361816 -9.80517578 8.8918457 C-6.28274501 6.1312573 -3.10367465 3.22550113 0 0 Z " fill="#F9F9F9" transform="translate(552,624)"/>
<path d="M0 0 C-0.96292969 0.40347656 -1.92585938 0.80695313 -2.91796875 1.22265625 C-46.47435489 19.84881213 -86.78403975 45.54566979 -123 76 C-123.99467285 76.82628906 -124.9893457 77.65257812 -126.01416016 78.50390625 C-134.59476905 85.6937343 -142.61367297 93.3314028 -150.48901367 101.28320312 C-152.45494718 103.26761113 -154.4289848 105.2436814 -156.40429688 107.21875 C-162.47648543 113.30767515 -168.48325094 119.39540034 -174 126 C-174.94732915 127.10336929 -175.89523084 128.2062473 -176.84375 129.30859375 C-177.73033409 130.35057031 -178.61575007 131.39354188 -179.5 132.4375 C-179.96704346 132.98881592 -180.43408691 133.54013184 -180.9152832 134.1081543 C-184.73682516 138.64224294 -188.42041553 143.27201642 -192 148 C-195.98555133 140.74176017 -195.11508242 131.95029953 -195.1875 123.875 C-195.20055176 123.02808594 -195.21360352 122.18117188 -195.22705078 121.30859375 C-195.23447888 115.86698294 -194.52684779 111.22628532 -193 106 C-218.56425496 115.61732188 -243.2880642 127.46376988 -267 141 C-267.81178711 141.45826172 -268.62357422 141.91652344 -269.45996094 142.38867188 C-286.24708864 151.86798708 -302.59217617 161.88793968 -317.99121094 173.50341797 C-320.20774404 175.15477285 -322.44891633 176.76842838 -324.6953125 178.37890625 C-334.40138501 185.36704707 -343.45603 192.6247619 -352 201 C-352.66 200.67 -353.32 200.34 -354 200 C-330.43505969 174.58721453 -330.43505969 174.58721453 -320.078125 165.796875 C-317.91909273 163.93004259 -315.82442335 162.00095851 -313.73291016 160.05908203 C-308.58252473 155.27971963 -303.32076784 150.71929597 -297.84375 146.3125 C-295.26588706 144.21621585 -292.7355165 142.07736743 -290.21386719 139.91455078 C-284.21751287 134.77811126 -278.09184838 129.89835953 -271.70654297 125.24707031 C-269.85036533 123.89065323 -268.00558807 122.51943368 -266.16015625 121.1484375 C-253.1402269 111.54377083 -239.62091142 102.72177375 -226 94 C-225.06720215 93.40123047 -224.1344043 92.80246094 -223.17333984 92.18554688 C-210.37721457 84.00691902 -197.24603684 76.597467 -183.82470703 69.49609375 C-181.20988222 68.1111632 -178.60203652 66.7140506 -175.99609375 65.3125 C-167.02275558 60.50895615 -157.94739445 55.97857751 -148.72973633 51.66137695 C-143.92698512 49.41085422 -139.1859659 47.07404706 -134.46484375 44.65625 C-126.29704971 40.52379484 -117.86591577 37.09287156 -109.375 33.6875 C-108.57473389 33.36462006 -107.77446777 33.04174011 -106.94995117 32.70907593 C-88.88416736 25.42650295 -70.67764021 18.58762242 -52.03125 12.92651367 C-49.40189432 12.12284061 -46.78499184 11.29215142 -44.171875 10.4375 C-35.75928131 7.69563829 -27.38101828 5.25538796 -18.74047852 3.33911133 C-14.95899172 2.49380588 -11.33039327 1.50678598 -7.6875 0.1875 C-4.08488303 -0.97266479 -3.34607787 -1.08581335 0 0 Z " fill="#F9F9F9" transform="translate(820,185)"/>
<path d="M0 0 C3.10412761 1.35428461 4.91475724 2.77134253 7.0625 5.375 C9.62892163 8.41403889 12.25135082 11.37749351 14.96020508 14.29077148 C19.7020509 19.39101739 24.20475298 24.613207 28.5703125 30.04296875 C30.8604991 32.83022158 33.21388775 35.54254886 35.59838867 38.24853516 C42.44913004 46.03194952 48.84415403 54.0891594 55.046875 62.39624023 C56.57397315 64.43205296 58.11159708 66.45827683 59.65625 68.48071289 C67.10488419 78.26948097 74.08602686 88.30736536 80.875 98.5625 C81.39402893 99.34381287 81.91305786 100.12512573 82.44781494 100.93011475 C99.61071741 126.78141165 114.81137789 153.41475111 129 181 C129.54454834 182.05405029 129.54454834 182.05405029 130.10009766 183.12939453 C132.46617143 187.72153075 134.75012293 192.3499308 137 197 C137.43828125 197.90024902 137.8765625 198.80049805 138.328125 199.72802734 C157.67935006 239.71145575 173.84334916 281.43434698 185.28710938 324.37109375 C186.35493402 328.30887998 187.51791119 332.21647793 188.6875 336.125 C190.28728174 341.53120404 191.86778415 346.94218092 193.375 352.375 C193.88160156 354.18097656 193.88160156 354.18097656 194.3984375 356.0234375 C195 359 195 359 194 362 C193.70609375 361.20722656 193.4121875 360.41445313 193.109375 359.59765625 C176.31271996 315.9166999 151.40729555 275.04599297 123 238 C122.54125488 237.39945801 122.08250977 236.79891602 121.60986328 236.18017578 C112.42351953 224.18863956 102.81247893 212.49862331 91.96484375 201.96484375 C90.09170282 200.09170282 88.38937477 198.15337352 86.6875 196.125 C82.36148903 191.08800112 77.40278298 186.73763337 72.46386719 182.31982422 C71.16247252 181.1464854 69.88053764 179.95164355 68.6015625 178.75390625 C62.57087909 173.14516486 56.12741221 168.17765598 49.53637695 163.25244141 C48.82054443 162.71538574 48.10471191 162.17833008 47.3671875 161.625 C46.71862793 161.14289063 46.07006836 160.66078125 45.40185547 160.1640625 C44.93924316 159.77992188 44.47663086 159.39578125 44 159 C44 158.67 44 158.34 44 158 C59.0261 154.84056971 72.88692886 153.61462556 88 157 C65.77636146 104.24279739 39.77427747 54.11035648 5.50561523 8.1159668 C4.93399658 7.34808838 4.36237793 6.58020996 3.7734375 5.7890625 C3.00652588 4.76353271 3.00652588 4.76353271 2.22412109 3.71728516 C1 2 1 2 0 0 Z " fill="#F8F8F8" transform="translate(633,475)"/>
<path d="M0 0 C2.24913485 2.79122992 3.71920489 5.39352361 5.0234375 8.7265625 C5.39791016 9.66298584 5.77238281 10.59940918 6.15820312 11.56420898 C6.55974609 12.57427002 6.96128906 13.58433105 7.375 14.625 C15.01976572 33.37731231 24.01934613 51.55740307 34.64746094 68.80419922 C36.18554983 71.30123379 37.70555539 73.8089327 39.2265625 76.31640625 C44.81410281 85.48355276 50.479019 94.46120601 57 103 C57.90010927 104.21490902 58.79840571 105.43116233 59.6953125 106.6484375 C69.08831596 119.35744401 78.81130234 131.80083361 89.5859375 143.375 C91.51162964 145.4689565 93.37522898 147.59083962 95.23046875 149.74609375 C99.2731513 154.38136963 103.57884464 158.72591378 107.9375 163.0625 C109.07735352 164.2081543 109.07735352 164.2081543 110.24023438 165.37695312 C117.70827452 172.83223829 125.59980192 179.5495719 133.875 186.08203125 C134.57625 186.71496094 135.2775 187.34789062 136 188 C136 188.66 136 189.32 136 190 C131.16746479 190.78161949 126.53405413 191.128372 121.640625 191.1328125 C120.96956726 191.13376923 120.29850952 191.13472595 119.6071167 191.13571167 C118.20210678 191.13638694 116.79709362 191.13457866 115.39208984 191.13037109 C113.2417914 191.12497942 111.09169859 191.13035549 108.94140625 191.13671875 C107.57031204 191.13605851 106.19921796 191.13477848 104.828125 191.1328125 C103.5896582 191.13168457 102.35119141 191.13055664 101.07519531 191.12939453 C98 191 98 191 95 190 C95.24306885 190.53584717 95.4861377 191.07169434 95.73657227 191.6237793 C97.90116515 196.43866085 99.9388235 201.28621338 101.89086914 206.19067383 C107.26799204 219.66044823 113.35116178 232.77832121 119.53857422 245.88916016 C120.78279941 248.53765955 122.00957212 251.19261506 123.22265625 253.85546875 C138.80374504 287.93763463 159.95226751 320.48986409 183 350 C182.67 350.66 182.34 351.32 182 352 C162.46666308 330.9132505 162.46666308 330.9132505 154.3828125 320.9140625 C152.25779483 318.3152704 150.09516765 315.75791058 147.91040039 313.2097168 C142.80114571 307.24258137 137.96317395 301.13968201 133.32080078 294.79785156 C131.79457255 292.72037565 130.25492932 290.65316055 128.71484375 288.5859375 C121.24709425 278.54150583 113.95748127 268.40486016 107 258 C106.25266602 256.8860083 106.25266602 256.8860083 105.49023438 255.74951172 C90.51766972 233.34194064 77.48133667 209.8623036 65 186 C64.48228027 185.01660645 63.96456055 184.03321289 63.43115234 183.02001953 C48.2079866 153.96308407 36.05533357 123.60774375 25.28393555 92.66235352 C24.13496544 89.38498128 22.95385498 86.12224853 21.75390625 82.86328125 C20.41906196 79.21074265 19.2156369 75.56545292 18.1875 71.8125 C16.65586089 66.31910147 15.08247032 60.84050472 13.47705078 55.36816406 C5.05084511 26.63898659 5.05084511 26.63898659 1.6875 12.6875 C1.51581299 11.98761963 1.34412598 11.28773926 1.16723633 10.56665039 C0.32421913 6.97778063 -0.19261684 3.68825573 0 0 Z " fill="#F9F9F9" transform="translate(206,185)"/>
<path d="M0 0 C3.34400769 0.51172962 5.82228336 1.93033896 8.69140625 3.66796875 C10.08806519 4.5029187 10.08806519 4.5029187 11.51293945 5.35473633 C12.51929443 5.95954834 13.52564941 6.56436035 14.5625 7.1875 C27.76879136 15.00421043 41.28221131 22.12235044 55 29 C55.84836426 29.42619629 56.69672852 29.85239258 57.57080078 30.29150391 C91.62430418 47.25783925 128.16526443 60.55424247 165 70 C167.04037817 70.53640667 169.08074256 71.07286574 171.12109375 71.609375 C183.99097247 74.94752212 196.90944578 77.68188102 210 80 C210 80.33 210 80.66 210 81 C200.05792638 80.37580022 190.23013782 79.22095502 180.375 77.8125 C179.23547882 77.65068237 179.23547882 77.65068237 178.07293701 77.4855957 C164.55758478 75.54711631 151.28182241 72.92934391 138.00585938 69.72314453 C135.09669307 69.02326225 132.18278158 68.3492909 129.265625 67.68359375 C127.46858023 67.26896426 125.67169552 66.85364024 123.875 66.4375 C123.11912598 66.26412109 122.36325195 66.09074219 121.58447266 65.91210938 C76.58729983 55.23383405 33.62972128 37.08416016 -7.25 15.75 C-7.94125977 15.39139893 -8.63251953 15.03279785 -9.34472656 14.66333008 C-13.8774341 12.2451318 -13.8774341 12.2451318 -15 10 C-14.00097656 9.36191406 -13.00195312 8.72382812 -11.97265625 8.06640625 C-10.66922829 7.23183727 -9.36584519 6.39719823 -8.0625 5.5625 C-7.40314453 5.14162109 -6.74378906 4.72074219 -6.06445312 4.28710938 C-2.86871187 2.35604912 -2.86871187 2.35604912 0 0 Z " fill="#F5F5F5" transform="translate(544,743)"/>
<path d="M0 0 C2.33484869 3.06989365 4.58571583 6.18223369 6.75 9.375 C7.70132813 10.74785156 7.70132813 10.74785156 8.671875 12.1484375 C10.37120846 15.7970064 10.22609431 17.17552892 9 21 C7.50002348 23.8792119 5.75211739 26.58147485 4 29.3125 C-20.23659912 68.48084153 -39.35005226 112.51515603 -51.0625 157.0625 C-51.5315729 158.82447972 -52.00164262 160.58619433 -52.47265625 162.34765625 C-52.71274414 163.2497583 -52.95283203 164.15186035 -53.20019531 165.08129883 C-54.08829356 168.3222068 -55.0397694 171.54190539 -55.98828125 174.765625 C-58.06644157 182.00686138 -59.6458913 189.30369546 -61.125 196.6875 C-61.37636719 197.91533203 -61.62773437 199.14316406 -61.88671875 200.40820312 C-63.34830895 207.58989112 -64.72418164 214.7830159 -66 222 C-66.33 222 -66.66 222 -67 222 C-65.98313126 174.10548217 -52.83606385 125.93506766 -37 81 C-36.62762207 79.94087402 -36.25524414 78.88174805 -35.87158203 77.79052734 C-30.0826752 61.48532325 -23.20893099 45.72163103 -16 30 C-15.57122559 29.05592285 -15.14245117 28.1118457 -14.70068359 27.13916016 C-10.38504004 17.65303368 -5.98759663 8.56746142 0 0 Z " fill="#F4F4F4" transform="translate(270,520)"/>
<path d="M0 0 C0.33 0 0.66 0 1 0 C0.88172844 2.45880344 0.75529205 4.91682335 0.625 7.375 C0.5940625 8.035 0.563125 8.695 0.53125 9.375 C-0.28159347 24.27713035 -2.50009855 39.02999653 -4.921875 53.74072266 C-5.37444129 56.49659775 -5.81654081 59.25401529 -6.2578125 62.01171875 C-8.95896828 78.68488233 -12.48819245 94.90963396 -17.41943359 111.06396484 C-18.26498499 113.88365476 -19.03333014 116.72385033 -19.8125 119.5625 C-29.70084519 154.05398976 -43.63394747 187.11198934 -60 219 C-60.66 219 -61.32 219 -62 219 C-63.31799019 216.58618654 -64.62950918 214.16922404 -65.9375 211.75 C-66.31068359 211.06808594 -66.68386719 210.38617188 -67.06835938 209.68359375 C-67.42607422 209.01972656 -67.78378906 208.35585938 -68.15234375 207.671875 C-68.48226318 207.0644043 -68.81218262 206.45693359 -69.15209961 205.83105469 C-70.07836655 203.83076616 -70.71770809 202.19300712 -71 200 C-70.25 198.09423828 -70.25 198.09423828 -69 196.0703125 C-68.53263428 195.29091309 -68.06526855 194.51151367 -67.58374023 193.70849609 C-67.06110596 192.85594238 -66.53847168 192.00338867 -66 191.125 C-47.83673937 160.35282617 -34.59600155 127.75028733 -23 94 C-22.37907471 92.21166748 -22.37907471 92.21166748 -21.74560547 90.38720703 C-18.70159893 81.47402996 -16.17580301 72.50553118 -13.875 63.375 C-13.53822234 62.05977747 -13.20098308 60.74467304 -12.86328125 59.4296875 C-9.23933501 45.26204777 -6.14957542 31.02893832 -3.3125 16.6875 C-2.98911418 15.06051071 -2.66554759 13.43355734 -2.34179688 11.80664062 C-1.55911923 7.87150356 -0.77886888 3.93589261 0 0 Z " fill="#F5F5F5" transform="translate(812,272)"/>
<path d="M0 0 C12.44466208 1.23034144 24.70136947 2.99418617 37 5.25 C37.84517181 5.40373077 38.69034363 5.55746155 39.56112671 5.71585083 C62.14256849 9.83475887 84.0909791 15.01422081 105.96044922 22.03442383 C109.11052893 23.0351118 112.27069271 23.99770507 115.43359375 24.95703125 C150.07918838 35.59815974 185.02365289 50.04774327 216 69 C216 69.66 216 70.32 216 71 C214.11012684 72.24233522 212.1608747 73.39509744 210.1875 74.5 C207.05526066 76.26632851 203.99263686 78.00490876 201 80 C197.04639878 79.69720778 193.8474108 77.23456725 190.5625 75.1875 C176.44838 66.5721126 162.16655226 58.26683306 147.2578125 51.09863281 C144.73174804 49.86947083 142.22602579 48.60296896 139.71875 47.3359375 C114.55481651 34.75819786 88.41344337 25.04682817 61.5 16.9375 C60.61846252 16.67164093 59.73692505 16.40578186 58.82867432 16.13186646 C42.06024614 11.1065937 25.15893104 6.61429338 7.953125 3.35351562 C2.20969742 2.20969742 2.20969742 2.20969742 0 0 Z " fill="#F6F6F5" transform="translate(277,186)"/>
<path d="M0 0 C0.66 0.33 1.32 0.66 2 1 C-1.65548894 14.78546391 -5.51623628 28.46019686 -10 42 C-10.46913818 43.42940918 -10.46913818 43.42940918 -10.94775391 44.88769531 C-18.55821891 67.94368557 -27.48413021 90.39205333 -38.3125 112.125 C-38.87477295 113.25599121 -39.4370459 114.38698242 -40.01635742 115.55224609 C-47.73958021 130.76234765 -47.73958021 130.76234765 -52 136 C-52.99 136 -53.98 136 -55 136 C-56.859375 133.734375 -56.859375 133.734375 -58.75 130.75 C-59.38421875 129.77546875 -60.0184375 128.8009375 -60.671875 127.796875 C-62 125 -62 125 -61.83178711 123.20483398 C-60.66254875 120.10551153 -58.90145157 117.65108899 -57.01953125 114.92578125 C-56.18311844 113.70174067 -55.347202 112.4773608 -54.51171875 111.25268555 C-54.07134277 110.6108432 -53.6309668 109.96900085 -53.17724609 109.30770874 C-29.99339026 75.41376172 -12.51422016 39.08323683 0 0 Z " fill="#F5F6F5" transform="translate(783,318)"/>
<path d="M0 0 C2.86198697 2.71266591 5.10932246 5.44168017 7.25 8.75 C8.03117187 9.94882812 8.03117187 9.94882812 8.828125 11.171875 C9.21484375 11.77515625 9.6015625 12.3784375 10 13 C8.7335271 15.6835771 7.35900195 17.99327495 5.53125 20.328125 C4.80566895 21.26821411 4.80566895 21.26821411 4.06542969 22.22729492 C3.54883789 22.8947876 3.03224609 23.56228027 2.5 24.25 C-3.1166624 31.62123461 -8.09976489 39.24396315 -12.88574219 47.17285156 C-13.89311545 48.82473182 -14.93300813 50.45667277 -15.9765625 52.0859375 C-22.7178108 62.65554903 -28.34764799 73.82185506 -34 85 C-34.45197754 85.8878418 -34.90395508 86.77568359 -35.36962891 87.69042969 C-42.46189908 101.71589108 -47.94009759 116.1293651 -53 131 C-53.33 131 -53.66 131 -54 131 C-53.52036964 121.98907209 -50.67321206 113.71418047 -47.9375 105.1875 C-47.68945618 104.40688202 -47.44141235 103.62626404 -47.18585205 102.82199097 C-43.31293782 90.65146798 -39.13687654 78.70233703 -34 67 C-33.64196289 66.1754834 -33.28392578 65.3509668 -32.91503906 64.50146484 C-27.96879062 53.15254876 -22.68424461 41.99688622 -17 31 C-16.60135742 30.22736816 -16.20271484 29.45473633 -15.79199219 28.65869141 C-10.77150474 18.95589408 -5.64160528 9.3590869 0 0 Z " fill="#F4F4F5" transform="translate(290,555)"/>
<path d="M0 0 C3.51664206 1.19103789 5.80251901 3.31902221 8.48828125 5.78125 C15.78272304 12.18270823 23.5477494 17.61911817 31.67578125 22.90625 C32.43826172 23.40350586 33.20074219 23.90076172 33.98632812 24.41308594 C57.84158512 39.84597669 84.37279041 55.53024773 111.67578125 63.90625 C107.65640688 65.53908125 104.36373445 64.15001955 100.46484375 62.8359375 C99.75301941 62.60376022 99.04119507 62.37158295 98.30780029 62.13237 C95.96734913 61.36226679 93.63374601 60.57372576 91.30078125 59.78125 C90.49811829 59.5112619 89.69545532 59.2412738 88.86846924 58.96310425 C52.80847516 46.78756594 18.23986729 30.21445328 -13.32421875 8.90625 C-4.73247563 -0.19088977 -4.73247563 -0.19088977 0 0 Z " fill="#F6F6F5" transform="translate(576.32421875,723.09375)"/>
<path d="M0 0 C38.25070732 7.73066927 75.73933964 27.18836215 108.76074219 47.61816406 C110.28919906 48.56136794 111.82682565 49.48983207 113.37207031 50.40527344 C114.10780273 50.84645508 114.84353516 51.28763672 115.6015625 51.7421875 C116.25721191 52.13003418 116.91286133 52.51788086 117.58837891 52.91748047 C118.28713135 53.45332764 118.28713135 53.45332764 119 54 C119 54.66 119 55.32 119 56 C116.55078125 58.015625 116.55078125 58.015625 113.3125 60.25 C111.72888672 61.37148438 111.72888672 61.37148438 110.11328125 62.515625 C107 64 107 64 104.3828125 63.484375 C101.78903386 61.86857847 99.75596768 60.12884212 97.5625 58 C91.45766033 52.35573255 84.84181319 47.69194408 78 43 C77.41089844 42.59136719 76.82179688 42.18273437 76.21484375 41.76171875 C52.47923494 25.32937419 26.71435703 11.86770594 0 1 C0 0.67 0 0.34 0 0 Z " fill="#F6F6F6" transform="translate(340,222)"/>
<path d="M0 0 C0.66 0 1.32 0 2 0 C2.51046875 1.17755859 2.51046875 1.17755859 3.03125 2.37890625 C8.05320028 13.26425062 13.78827324 18.82155554 25 23 C25 23.66 25 24.32 25 25 C24.21496094 25.3403125 23.42992187 25.680625 22.62109375 26.03125 C11.73574938 31.05320028 6.17844446 36.78827324 2 48 C1.34 48 0.68 48 0 48 C-0.3403125 47.21496094 -0.680625 46.42992187 -1.03125 45.62109375 C-6.05320028 34.73574938 -11.78827324 29.17844446 -23 25 C-23 24.34 -23 23.68 -23 23 C-22.21496094 22.6596875 -21.42992187 22.319375 -20.62109375 21.96875 C-9.73574938 16.94679972 -4.17844446 11.21172676 0 0 Z " fill="#7D7D7D" transform="translate(967,944)"/>
<path d="M0 0 C2.38057153 3.00157098 4.19534071 6.07567093 5.9609375 9.47265625 C6.51523437 10.53806641 7.06953125 11.60347656 7.640625 12.70117188 C8.49914062 14.3650293 8.49914062 14.3650293 9.375 16.0625 C9.93960938 17.14466797 10.50421875 18.22683594 11.0859375 19.34179688 C19.26814311 35.12852922 19.26814311 35.12852922 21 40 C20.67 40.66 20.34 41.32 20 42 C19.68885254 41.42258057 19.37770508 40.84516113 19.05712891 40.25024414 C12.27533621 27.68588435 5.34133784 15.24639099 -2 3 C-1.34 2.67 -0.68 2.34 0 2 C0 1.34 0 0.68 0 0 Z " fill="#1B1C1B" transform="translate(758,576)"/>
<path d="M0 0 C-3.70693315 2.1066405 -7.41579081 4.20986997 -11.125 6.3125 C-12.17171875 6.90740234 -13.2184375 7.50230469 -14.296875 8.11523438 C-15.31523438 8.69208984 -16.33359375 9.26894531 -17.3828125 9.86328125 C-18.31496582 10.39219971 -19.24711914 10.92111816 -20.20751953 11.46606445 C-23.10248316 13.05629496 -26.03685571 14.54136833 -29 16 C-29 14.68 -29 13.36 -29 12 C-25.35856844 10.11752317 -21.71071834 8.24820514 -18.05639648 6.39086914 C-16.81399758 5.75709152 -15.57341674 5.1197368 -14.3347168 4.47875977 C-12.55478262 3.55849744 -10.76770675 2.65208974 -8.98046875 1.74609375 C-7.90692139 1.19622803 -6.83337402 0.6463623 -5.72729492 0.07983398 C-3 -1 -3 -1 0 0 Z " fill="#151515" transform="translate(612,231)"/>
<path d="M0 0 C2.23032816 2.81934898 3.93308566 5.63055751 5.5234375 8.8515625 C6.21953125 10.25341797 6.21953125 10.25341797 6.9296875 11.68359375 C7.40664062 12.65425781 7.88359375 13.62492187 8.375 14.625 C9.07882813 16.04619141 9.07882813 16.04619141 9.796875 17.49609375 C10.73422425 19.3889178 11.67011421 21.28246525 12.60449219 23.17675781 C14.72107612 27.4588041 16.85964885 31.72979534 19 36 C17.515 36.495 17.515 36.495 16 37 C15.43285278 35.77482666 15.43285278 35.77482666 14.85424805 34.52490234 C13.44042029 31.471832 12.0257779 28.41914184 10.6105957 25.36669922 C10.00024663 24.04979159 9.39021516 22.73273672 8.78051758 21.41552734 C7.90010298 19.51360145 7.01851754 17.61222196 6.13671875 15.7109375 C5.60780029 14.56931152 5.07888184 13.42768555 4.53393555 12.25146484 C3.50375119 10.06779538 2.42591165 7.90603403 1.30395508 5.76806641 C0 3 0 3 0 0 Z " fill="#343534" transform="translate(241,383)"/>
<path d="M0 0 C0.66 0.33 1.32 0.66 2 1 C0.72451435 4.82645696 -0.3925189 5.01967864 -3.91796875 6.8125 C-5.42907227 7.58980469 -5.42907227 7.58980469 -6.97070312 8.3828125 C-8.56301758 9.18332031 -8.56301758 9.18332031 -10.1875 10 C-11.22970703 10.53367187 -12.27191406 11.06734375 -13.34570312 11.6171875 C-15.35118264 12.6422387 -17.36000818 13.66077712 -19.37255859 14.671875 C-20.92583031 15.45702629 -22.47323824 16.25429789 -24.00634766 17.078125 C-25.30909518 17.77482377 -26.65035215 18.39917477 -28 19 C-28.66 18.67 -29.32 18.34 -30 18 C-29.30438965 17.5968457 -28.6087793 17.19369141 -27.89208984 16.77832031 C-24.71856616 14.93753912 -21.54677175 13.09379811 -18.375 11.25 C-17.28058594 10.61578125 -16.18617188 9.9815625 -15.05859375 9.328125 C-9.94021069 6.35015667 -4.86453046 3.37956853 0 0 Z " fill="#181818" transform="translate(440,760)"/>
<path d="M0 0 C0.66 0.33 1.32 0.66 2 1 C1.49549316 1.4940332 0.99098633 1.98806641 0.47119141 2.49707031 C-1.81612891 4.74276467 -4.09560782 6.99626015 -6.375 9.25 C-7.1690625 10.02730469 -7.963125 10.80460937 -8.78125 11.60546875 C-9.54179687 12.35957031 -10.30234375 13.11367188 -11.0859375 13.890625 C-11.7876709 14.58188477 -12.4894043 15.27314453 -13.21240234 15.98535156 C-14.93812128 17.93026178 -15.90820254 19.6626653 -17 22 C-18.83984375 23.921875 -18.83984375 23.921875 -20.9375 25.75 C-21.62714844 26.36359375 -22.31679688 26.9771875 -23.02734375 27.609375 C-25 29 -25 29 -28 29 C-18.85418037 19.13701078 -9.58394819 9.43849198 0 0 Z " fill="#CFCFD0" transform="translate(494,356)"/>
<path d="M0 0 C0.33 0 0.66 0 1 0 C0.43657596 10.00976758 -0.1831954 20.00717773 -1 30 C-1.33 30 -1.66 30 -2 30 C-2.144375 29.0925 -2.28875 28.185 -2.4375 27.25 C-2.89560417 24.198354 -2.89560417 24.198354 -3.58374023 22.09472656 C-4.0892581 19.55083023 -3.75845565 17.76724488 -3.22265625 15.234375 C-2.94711914 13.90019531 -2.94711914 13.90019531 -2.66601562 12.5390625 C-2.46685547 11.61867188 -2.26769531 10.69828125 -2.0625 9.75 C-1.86720703 8.81414062 -1.67191406 7.87828125 -1.47070312 6.9140625 C-0.98823295 4.60761973 -0.49775423 2.303184 0 0 Z " fill="#DAD9D8" transform="translate(812,272)"/>
<path d="M0 0 C0.66 0.33 1.32 0.66 2 1 C1.04865332 4.58522561 0.0877132 8.16781134 -0.875 11.75 C-1.27912109 13.27367187 -1.27912109 13.27367187 -1.69140625 14.828125 C-2.08779297 16.29765625 -2.08779297 16.29765625 -2.4921875 17.796875 C-2.73308105 18.69760742 -2.97397461 19.59833984 -3.22216797 20.52636719 C-3.9508846 22.84380502 -4.84656617 24.86723556 -6 27 C-6.66 26.67 -7.32 26.34 -8 26 C-5.74603165 17.185701 -2.9375631 8.60369272 0 0 Z " fill="#B0AFAE" transform="translate(783,318)"/>
<path d="M0 0 C1.95720377 2.93580566 2.30195175 3.89822836 2.6328125 7.23046875 C2.71660156 8.03291016 2.80039063 8.83535156 2.88671875 9.66210938 C2.96535156 10.49548828 3.04398438 11.32886719 3.125 12.1875 C3.21136719 13.03248047 3.29773438 13.87746094 3.38671875 14.74804688 C3.5985739 16.83128923 3.80026777 18.91556042 4 21 C3.67 21 3.34 21 3 21 C2.67 23.31 2.34 25.62 2 28 C1.67 28 1.34 28 1 28 C0.27507668 18.64072209 -0.14256667 9.39355936 0 0 Z " fill="#ADADAB" transform="translate(181,146)"/>
<path d="M0 0 C2.87603344 0.28338275 5.75053851 0.57641253 8.625 0.875 C9.43324219 0.95363281 10.24148438 1.03226563 11.07421875 1.11328125 C15.63499049 1.59531404 19.68545585 2.3384118 24 4 C24 4.33 24 4.66 24 5 C15.45956114 5.59932904 8.1066924 3.39248893 0 1 C0 0.67 0 0.34 0 0 Z " fill="#BCBBB9" transform="translate(277,186)"/>
<path d="M0 0 C0.99 0.66 1.98 1.32 3 2 C0.69 8.6 -1.62 15.2 -4 22 C-4.33 22 -4.66 22 -5 22 C-4.47458553 14.2501365 -2.44408524 7.3549914 0 0 Z " fill="#CFCECE" transform="translate(241,664)"/>
<path d="M0 0 C0.33 0 0.66 0 1 0 C3.29612756 16.70842825 3.29612756 16.70842825 3 25 C-1.2344531 17.63884102 -1.60167416 8.16853821 0 0 Z " fill="#BAB8B6" transform="translate(849,846)"/>
<path d="M0 0 C0 0.66 0 1.32 0 2 C-6.65637843 3.23839599 -13.2471936 3.09139136 -20 3 C-16.73061378 1.13739295 -13.70063691 0.42773089 -10 -0.1875 C-8.453125 -0.45626953 -8.453125 -0.45626953 -6.875 -0.73046875 C-4.20914487 -0.98039267 -2.50755482 -0.84991642 0 0 Z " fill="#C4C5C6" transform="translate(176,849)"/>
<path d="M0 0 C3.95906817 1.43308135 7.28718181 3.33141949 10.8125 5.625 C11.78832031 6.25664062 12.76414062 6.88828125 13.76953125 7.5390625 C14.50558594 8.02117187 15.24164062 8.50328125 16 9 C15.67 10.32 15.34 11.64 15 13 C12.49609493 11.02573301 9.99755419 9.04479301 7.5 7.0625 C6.78457031 6.49853516 6.06914063 5.93457031 5.33203125 5.35351562 C4.65527344 4.81533203 3.97851562 4.27714844 3.28125 3.72265625 C2.65283203 3.22515869 2.02441406 2.72766113 1.37695312 2.21508789 C0.92255859 1.81410889 0.46816406 1.41312988 0 1 C0 0.67 0 0.34 0 0 Z " fill="#E9E8E8" transform="translate(546,360)"/>
<path d="M0 0 C5.02474293 0.61830949 9.24720494 2.12976776 13.875 4.0625 C14.56335938 4.34416016 15.25171875 4.62582031 15.9609375 4.91601562 C17.64289909 5.60515266 19.32177697 6.30180798 21 7 C16.54844452 8.40620961 13.11987505 7.13601757 8.8125 5.75 C8.07580078 5.53214844 7.33910156 5.31429687 6.58007812 5.08984375 C4.68544628 4.49374063 2.83689134 3.75551237 1 3 C0.67 2.01 0.34 1.02 0 0 Z " fill="#D4D3D3" transform="translate(667,780)"/>
<path d="M0 0 C2.95936349 3.56219679 4.81027576 7.45818496 6.75 11.625 C7.07871094 12.305625 7.40742187 12.98625 7.74609375 13.6875 C8.56201306 15.42950494 9.28847373 17.21281342 10 19 C9.67 19.66 9.34 20.32 9 21 C7.29599331 18.07178145 5.61475261 15.131112 3.9375 12.1875 C3.45216797 11.35412109 2.96683594 10.52074219 2.46679688 9.66210938 C1.78520508 8.45844727 1.78520508 8.45844727 1.08984375 7.23046875 C0.66566162 6.49207764 0.24147949 5.75368652 -0.19555664 4.99291992 C-1 3 -1 3 0 0 Z " fill="#323332" transform="translate(769,597)"/>
<path d="M0 0 C-3.43138632 2.79338987 -7.18782761 4.77735487 -11.125 6.75 C-12.07439453 7.24306641 -12.07439453 7.24306641 -13.04296875 7.74609375 C-14.66439906 8.56197269 -16.33012128 9.28852285 -18 10 C-18.66 9.67 -19.32 9.34 -20 9 C-17.23907588 7.29586336 -14.46486002 5.61469315 -11.6875 3.9375 C-10.50897461 3.20950195 -10.50897461 3.20950195 -9.30664062 2.46679688 C-8.54931641 2.01240234 -7.79199219 1.55800781 -7.01171875 1.08984375 C-6.31522217 0.66566162 -5.61872559 0.24147949 -4.90112305 -0.19555664 C-3 -1 -3 -1 0 0 Z " fill="#222222" transform="translate(430,769)"/>
<path d="M0 0 C6.45054982 1.35253464 12.71105679 3.03060233 19 5 C18.01 6.485 18.01 6.485 17 8 C8.585 4.535 8.585 4.535 0 1 C0 0.67 0 0.34 0 0 Z " fill="#D3D2D2" transform="translate(340,222)"/>
<path d="M0 0 C0.33 0.66 0.66 1.32 1 2 C0.01891947 4.27930793 -1.01031903 6.38834271 -2.1875 8.5625 C-2.49236328 9.16513672 -2.79722656 9.76777344 -3.11132812 10.38867188 C-5.46443068 14.78408986 -5.46443068 14.78408986 -8.23828125 15.90234375 C-8.81964844 15.93457031 -9.40101563 15.96679688 -10 16 C-8.55797524 11.84848662 -6.4989562 8.70021555 -3.875 5.1875 C-3.15054688 4.21167969 -2.42609375 3.23585938 -1.6796875 2.23046875 C-0.84824219 1.12638672 -0.84824219 1.12638672 0 0 Z " fill="#D2D1D2" transform="translate(651,544)"/>
<path d="M0 0 C0.33 0.99 0.66 1.98 1 3 C-0.40833381 5.1962951 -1.81653657 7.16069889 -3.4375 9.1875 C-3.87126953 9.74630859 -4.30503906 10.30511719 -4.75195312 10.88085938 C-5.82546453 12.26108832 -6.9115694 13.63150539 -8 15 C-8.33 14.34 -8.66 13.68 -9 13 C-7.63671875 10.21484375 -7.63671875 10.21484375 -5.6875 6.9375 C-4.73423828 5.31134766 -4.73423828 5.31134766 -3.76171875 3.65234375 C-2 1 -2 1 0 0 Z " fill="#E1E0E1" transform="translate(379,447)"/>
<path d="M0 0 C3.2826932 1.49076434 5.93077441 3.38620321 8.75 5.625 C9.94882812 6.57246094 9.94882812 6.57246094 11.171875 7.5390625 C11.77515625 8.02117188 12.3784375 8.50328125 13 9 C12.01 9.495 12.01 9.495 11 10 C7.04 7.36 3.08 4.72 -1 2 C-0.67 1.34 -0.34 0.68 0 0 Z " fill="#E2E2E2" transform="translate(461,641)"/>
<path d="M0 0 C-4.62 2.64 -9.24 5.28 -14 8 C-14.33 7.01 -14.66 6.02 -15 5 C-13.06891037 3.96709159 -11.129882 2.94901328 -9.1875 1.9375 C-8.10855469 1.36902344 -7.02960937 0.80054688 -5.91796875 0.21484375 C-3 -1 -3 -1 0 0 Z " fill="#2C2D2E" transform="translate(612,231)"/>
<path d="M0 0 C1.08667969 0.11085937 2.17335938 0.22171875 3.29296875 0.3359375 C4.12441406 0.43132812 4.95585937 0.52671875 5.8125 0.625 C4.171875 2.17578125 4.171875 2.17578125 1.8125 3.625 C-0.984375 3.48046875 -0.984375 3.48046875 -3.9375 2.8125 C-4.92234375 2.59980469 -5.9071875 2.38710937 -6.921875 2.16796875 C-7.66953125 1.98878906 -8.4171875 1.80960938 -9.1875 1.625 C-5.54331659 -0.80445561 -4.25826636 -0.4578781 0 0 Z " fill="#DEDEDD" transform="translate(307.1875,190.375)"/>
<path d="M0 0 C2.96052484 3.36423277 3.92289822 6.69159287 5 11 C4.34 11 3.68 11 3 11 C2.67 11.66 2.34 12.32 2 13 C-0.28571429 4.57142857 -0.28571429 4.57142857 0 0 Z " fill="#C9C7C4" transform="translate(206,185)"/>
<path d="M0 0 C0.99 0.33 1.98 0.66 3 1 C0.42215154 3.64752004 -1.91648098 5.94432065 -5 8 C-5.33 7.01 -5.66 6.02 -6 5 C-1.60546875 0.99609375 -1.60546875 0.99609375 0 0 Z " fill="#181818" transform="translate(544,628)"/>
<path d="M0 0 C0 3 0 3 -1.75 5.04296875 C-2.4925 5.75066406 -3.235 6.45835937 -4 7.1875 C-4.7425 7.90292969 -5.485 8.61835937 -6.25 9.35546875 C-7.11625 10.16951172 -7.11625 10.16951172 -8 11 C-8.66 10.34 -9.32 9.68 -10 9 C-6.7 6.03 -3.4 3.06 0 0 Z " fill="#A8A8A7" transform="translate(552,624)"/>
<path d="M0 0 C3.21965664 1.36216242 4.81687435 2.72531153 6.75 5.625 C7.39195312 6.57246094 7.39195312 6.57246094 8.046875 7.5390625 C8.51867187 8.26222656 8.51867187 8.26222656 9 9 C8.01 9 7.02 9 6 9 C4.39453125 7.03125 4.39453125 7.03125 2.8125 4.5 C2.28269531 3.6646875 1.75289062 2.829375 1.20703125 1.96875 C0.80871094 1.3190625 0.41039062 0.669375 0 0 Z " fill="#CAC9CB" transform="translate(633,475)"/>
<path d="M0 0 C0.75 1.75 0.75 1.75 1 4 C-0.9375 6.25 -0.9375 6.25 -3 8 C-3.33 7.34 -3.66 6.68 -4 6 C-2.68 4.02 -1.36 2.04 0 0 Z " fill="#E7E6E6" transform="translate(776,343)"/>
<path d="M0 0 C0.66 0.33 1.32 0.66 2 1 C1.67 1.99 1.34 2.98 1 4 C-1.5625 5.1875 -1.5625 5.1875 -4 6 C-4 4.68 -4 3.36 -4 2 C-2.125 0.9375 -2.125 0.9375 0 0 Z " fill="#1D1E1E" transform="translate(587,241)"/>
<path d="M0 0 C3.125 0.375 3.125 0.375 6 1 C5.01 2.485 5.01 2.485 4 4 C2.02 3.34 0.04 2.68 -2 2 C-1.34 1.34 -0.68 0.68 0 0 Z " fill="#E5E5E5" transform="translate(662,778)"/>
<path d="M0 0 C2.9719385 1.12451727 5.33440687 2.22293791 8 4 C7.67 4.99 7.34 5.98 7 7 C5.83040013 6.02433888 4.66438823 5.044375 3.5 4.0625 C2.8503125 3.51722656 2.200625 2.97195313 1.53125 2.41015625 C1.0259375 1.94480469 0.520625 1.47945313 0 1 C0 0.67 0 0.34 0 0 Z " fill="#D1D1D1" transform="translate(546,360)"/>
</svg>
